<?xml version="1.0" encoding="UTF-8" standalone="no"?>
<!DOCTYPE svg PUBLIC "-//W3C//DTD SVG 1.1//EN" "http://www.w3.org/Graphics/SVG/1.1/DTD/svg11.dtd">
<svg width="100%" height="100%" viewBox="0 0 511 151" version="1.1" xmlns="http://www.w3.org/2000/svg" xmlns:xlink="http://www.w3.org/1999/xlink" xml:space="preserve" xmlns:serif="http://www.serif.com/" style="fill-rule:evenodd;clip-rule:evenodd;stroke-linejoin:round;stroke-miterlimit:2;">
    <g id="Calque-1" serif:id="Calque 1" transform="matrix(1,0,0,1,-15.244,-671.115)">
        <g transform="matrix(0.493796,0,0,0.493796,15.3589,671.115)">
            <g id="g1108">
                <g id="Layer_1-8">
                    <g id="g1085">
                        <path id="path1061" d="M147.362,162.417C142.268,162.488 148.326,165.042 154.976,166.065C156.813,164.631 158.479,163.179 159.965,161.768C155.823,162.782 151.608,162.805 147.362,162.417" style="fill:rgb(154,176,201);fill-rule:nonzero;"/>
                        <path id="path1063" d="M174.702,155.602C177.735,151.415 179.946,146.832 180.726,142.092C180.045,145.471 178.211,148.388 176.485,151.466C166.963,157.462 175.589,147.906 176.479,144.275C166.241,157.161 175.073,152.002 174.702,155.602" style="fill:rgb(154,176,201);fill-rule:nonzero;"/>
                        <path id="path1065" d="M184.793,129.342C185.409,120.169 182.988,123.069 182.174,126.57C183.124,127.063 183.875,133.036 184.793,129.342" style="fill:rgb(154,176,201);fill-rule:nonzero;"/>
                        <path id="path1067" d="M128.047,3.966C130.765,4.453 133.92,4.827 133.478,5.477C136.451,4.825 137.126,4.224 128.047,3.966" style="fill:rgb(154,176,201);fill-rule:nonzero;"/>
                        <path id="path1069" d="M133.478,5.477L131.556,5.873L133.345,5.715L133.478,5.477" style="fill:rgb(154,176,201);fill-rule:nonzero;"/>
                        <path id="path1071" d="M218.245,132.82C218.548,141.058 215.836,145.054 213.389,152.13L208.987,154.329C205.384,161.325 209.336,158.771 206.756,164.336C201.132,169.336 189.689,179.983 186.026,180.955C183.353,180.896 187.838,177.8 188.425,176.587C180.896,181.757 182.384,184.348 170.87,187.489L170.532,186.741C142.135,200.1 102.688,173.625 103.207,137.5C102.903,139.793 102.345,139.221 101.716,140.148C100.25,121.561 110.299,102.892 127.247,95.27C143.824,87.063 163.259,90.431 175.133,101.497C168.61,92.954 155.628,83.897 140.241,84.745C125.169,84.983 111.07,94.561 106.364,104.958C98.643,109.82 97.747,123.698 94.382,126.238C89.855,159.508 102.898,173.883 124.96,190.791C128.432,193.133 125.938,193.487 126.408,195.27C119.078,191.837 112.365,186.656 106.846,180.312C109.775,184.598 112.935,188.765 117.02,192.039C110.109,189.697 100.877,175.292 98.181,174.705C110.095,196.036 146.517,212.114 165.589,204.137C156.764,204.463 145.553,204.318 135.638,200.653C131.474,198.51 125.81,194.071 126.822,193.241C152.85,202.963 179.736,200.605 202.258,182.551C207.986,178.089 214.245,170.498 216.054,170.393C213.33,174.489 216.519,172.363 214.427,175.98C220.136,166.774 211.946,172.233 220.329,160.081L223.424,164.344C222.273,156.702 232.914,147.421 231.834,135.334C234.275,131.638 234.558,139.311 231.968,147.815C235.562,138.382 232.914,136.865 233.838,129.081C234.836,131.698 236.146,134.478 236.818,137.239C234.476,128.123 239.221,121.887 240.395,116.589C239.238,116.076 236.781,120.62 236.22,109.851C236.302,105.174 237.521,107.399 237.991,106.248C237.073,105.721 234.663,102.135 233.198,95.258C234.261,93.643 236.038,99.448 237.484,99.686C236.554,94.218 234.952,90.048 234.887,85.853C230.664,77.026 233.393,87.029 229.966,82.063C225.471,68.04 233.697,78.809 234.252,72.437C241.067,82.31 244.953,97.611 246.736,103.949C245.375,96.222 243.176,88.736 240.491,81.493C242.561,82.363 237.158,65.594 243.181,76.7C236.747,53.025 215.643,30.903 196.228,20.523C198.604,22.697 201.603,25.427 200.526,25.855C190.871,20.106 192.569,19.658 191.186,17.229C183.319,14.029 182.803,17.487 177.593,17.235C162.768,9.371 159.911,10.208 146.268,5.281L146.889,8.181C137.066,4.91 135.445,9.422 124.829,8.192C124.183,7.688 128.231,6.367 131.562,5.882C122.066,7.135 122.511,4.011 113.219,6.228C115.509,4.62 117.93,3.557 120.373,2.191C112.629,2.662 101.886,6.698 105.202,3.027C92.571,8.663 70.138,16.574 57.549,28.378L57.152,25.733C51.384,32.658 31.997,46.414 30.453,55.383L28.911,55.743C25.909,60.826 23.967,66.586 21.586,71.816C17.66,78.506 15.832,74.39 16.39,75.438C8.668,91.094 4.833,104.25 1.519,115.038C3.881,118.568 1.576,136.284 2.469,150.463C-1.409,220.49 51.616,288.482 109.576,304.18C118.072,307.219 130.706,307.103 141.452,307.414C128.772,303.789 127.134,305.493 114.783,301.187C105.874,296.991 103.921,292.201 97.611,286.724L100.108,291.138C87.732,286.758 92.911,285.718 82.843,282.529L85.51,279.045C81.499,278.742 74.886,272.285 73.077,268.71L68.689,268.883C63.417,262.378 60.608,257.689 60.812,254.058L59.394,256.584C57.787,253.826 39.997,232.186 49.226,237.223C47.512,235.655 45.232,234.672 42.761,230.182L44.64,228.033C40.198,222.318 36.465,214.994 36.748,212.553C39.118,215.753 40.762,216.351 42.389,216.899C31.173,189.068 30.543,215.365 22.048,188.569L23.845,188.425C22.467,186.35 21.631,184.096 20.523,181.885L21.305,174.09C13.229,164.752 19.046,134.388 20.211,117.734C21.019,110.962 26.952,103.754 31.465,92.449L28.715,91.976C33.97,82.809 58.723,55.159 70.186,56.582C75.739,49.606 69.083,56.557 67.997,54.799C80.195,42.177 84.03,45.882 92.262,43.611C101.14,38.341 84.643,45.666 88.852,41.601C104.199,37.681 99.729,32.689 119.75,30.699C121.861,31.901 114.849,32.556 113.088,34.115C125.875,27.859 153.553,29.282 171.53,37.587C192.39,47.336 215.827,76.153 216.751,103.266L217.803,103.55C217.27,114.327 219.453,126.791 215.671,138.24L218.245,132.82" style="fill:rgb(154,176,201);fill-rule:nonzero;"/>
                        <path id="path1073" d="M91.763,169.41L91.049,172.981C94.397,177.528 97.053,182.455 101.327,186.009C98.252,180.006 95.967,177.525 91.763,169.41" style="fill:rgb(154,176,201);fill-rule:nonzero;"/>
                        <path id="path1075" d="M99.677,169.098C97.906,167.139 96.857,164.781 95.683,162.431C96.806,166.561 99.105,170.11 101.245,173.718L99.677,169.098" style="fill:rgb(154,176,201);fill-rule:nonzero;"/>
                        <path id="path1077" d="M239.72,138.66L238.972,140.536C237.6,150.282 234.638,159.925 230.097,168.866C235.114,159.432 238.36,149.114 239.72,138.66" style="fill:rgb(154,176,201);fill-rule:nonzero;"/>
                        <path id="path1079" d="M129.053,1.522C132.497,0.261 137.52,0.831 141.174,0C136.412,0.4 131.672,0.638 126.992,1.242L129.053,1.522" style="fill:rgb(154,176,201);fill-rule:nonzero;"/>
                        <path id="path1081" d="M8.141,65.818C8.935,73.165 2.614,76.017 9.541,71.172C13.255,62.807 8.09,68.862 8.141,65.818" style="fill:rgb(154,176,201);fill-rule:nonzero;"/>
                        <path id="path1083" d="M0,99.822C1.596,94.924 1.885,91.981 2.495,89.147C-1.916,94.785 0.465,95.987 0,99.822" style="fill:rgb(154,176,201);fill-rule:nonzero;"/>
                    </g>
                </g>
            </g>
        </g>
        <g id="g1021" transform="matrix(0.989261,0,0,0.989261,153.383,398.485)">
            <g id="Layer_1">
                <g id="g991">
                    <path id="path977" d="M38.089,355.765C37.962,355.898 37.962,377.042 37.698,382.561C37.437,387.023 37.04,396.612 27.584,396.612C17.864,396.612 15.5,385.447 14.712,380.591C13.793,375.205 13.793,370.735 13.793,368.77C13.793,362.463 14.187,344.857 29.03,344.857C33.497,344.857 35.992,346.175 37.962,347.221L38.089,355.765ZM0,371.268C0,408.305 19.704,408.305 22.592,408.305C30.736,408.305 35.992,403.838 38.222,396.091L38.486,407.778C40.983,407.645 43.478,407.384 47.548,407.384C48.994,407.384 50.173,407.384 51.228,407.517C52.279,407.517 53.328,407.645 54.51,407.778C52.41,403.577 50.834,394.121 50.834,373.623C50.834,353.659 50.834,319.904 52.54,309.657C47.815,311.893 43.739,313.339 34.807,314.124C38.353,317.934 38.353,319.904 38.353,337.238C35.861,336.453 32.706,335.531 27.32,335.531C3.81,335.534 0,356.026 0,371.268" style="fill:rgb(249,249,249);fill-rule:nonzero;"/>
                    <path id="path979" d="M71.235,364.561C71.368,353.659 73.602,343.939 82.925,343.939C93.172,343.939 93.954,355.232 93.694,364.561L71.235,364.561ZM106.696,365.879C106.696,350.51 103.677,335.401 84.237,335.401C57.444,335.401 57.444,365.094 57.444,371.392C57.444,398.055 69.395,408.563 89.493,408.563C98.419,408.563 102.759,407.256 105.123,406.593C104.992,401.865 105.647,398.843 106.441,394.773C103.677,396.485 100.131,398.716 92.251,398.716C71.759,398.716 71.495,380.058 71.495,373.623L106.441,373.623L106.696,365.879" style="fill:rgb(249,249,249);fill-rule:nonzero;"/>
                    <path id="path981" d="M149.428,371.526C149.428,383.74 147.197,400.161 131.961,400.161C129.858,400.161 127.233,399.762 125.527,399.37C125.263,394.642 125.263,386.498 125.263,377.042C125.263,365.743 126.442,359.841 127.366,356.944C130.122,347.621 136.295,347.494 137.475,347.494C147.458,347.494 149.428,361.284 149.428,371.526ZM111.733,385.843C111.733,395.566 111.733,401.08 110.157,405.281C115.543,407.384 122.238,408.563 130.255,408.563C135.377,408.563 150.219,408.563 158.23,392.148C162.04,384.528 163.352,374.281 163.352,366.531C163.352,361.803 162.825,351.428 159.018,344.857C155.344,338.689 149.431,335.534 143.13,335.534C130.518,335.534 126.842,346.042 124.875,351.428C124.875,344.73 125.002,321.35 126.051,309.396C117.516,313.339 112.258,313.991 106.614,314.518C111.736,316.616 111.736,325.293 111.736,353.534L111.736,385.843" style="fill:rgb(249,249,249);fill-rule:nonzero;"/>
                    <path id="path983" d="M188.603,407.778C185.973,407.384 184.13,407.12 180.32,407.12C176.125,407.12 173.228,407.387 170.212,407.778C171.524,405.281 172.049,404.096 172.443,395.563C172.97,383.871 173.1,352.607 172.182,346.039C171.524,341.045 170.345,340.26 168.506,338.947C179.274,337.895 182.296,337.11 187.285,334.746C186.239,340.52 186.1,343.417 186.1,352.213C185.842,397.536 185.709,402.392 188.603,407.778" style="fill:rgb(249,249,249);fill-rule:nonzero;"/>
                    <path id="path985" d="M230.664,370.602C230.403,378.879 230.27,384.659 228.033,389.254C225.275,395.167 220.68,396.873 217.264,396.873C209.375,396.873 207.675,390.308 207.675,383.873C207.675,371.529 218.71,370.602 223.696,370.602L230.664,370.602ZM194.539,386.762C194.539,395.039 197.036,403.311 204.395,406.86C207.677,408.305 210.96,408.305 212.015,408.305C224.101,408.305 228.169,399.37 230.666,393.854C230.533,399.634 230.666,403.177 231.06,407.778C233.425,407.645 235.789,407.384 239.732,407.384C241.963,407.384 244.066,407.645 246.297,407.778C244.851,405.547 244.066,404.229 243.666,399.107C243.405,394.118 243.405,389.126 243.405,382.164L243.539,355.368C243.539,345.382 240.908,335.531 221.204,335.531C208.205,335.531 200.588,339.474 196.778,341.444C198.357,344.336 199.67,346.825 200.849,352.48C205.977,348.012 212.675,345.648 219.501,345.648C230.409,345.648 230.409,352.874 230.409,363.115C227.911,362.988 225.808,362.727 222.259,362.727C205.571,362.73 194.539,369.156 194.539,386.762" style="fill:rgb(249,249,249);fill-rule:nonzero;"/>
                    <path id="path987" d="M306.32,394.775C306.454,399.243 306.454,403.971 308.29,407.781C305.396,407.52 303.69,407.123 298.31,407.123C295.155,407.123 293.448,407.39 290.951,407.781C291.472,406.074 291.742,405.417 292.003,403.18C292.397,400.164 292.66,390.047 292.66,386.498L292.66,372.314C292.66,366.14 292.66,357.205 292.26,354.056C292,351.825 291.348,345.784 283.723,345.784C276.236,345.784 273.742,351.298 272.82,355.765C271.775,360.36 271.775,365.355 271.775,384.792C271.902,401.607 271.902,403.177 273.215,407.778C270.984,407.517 268.226,407.256 264.285,407.256C261.13,407.256 259.03,407.384 256.408,407.778C257.326,405.675 257.854,404.623 258.114,397.27C258.381,390.044 258.905,354.577 257.715,346.175C257.063,341.048 255.745,339.868 254.305,338.556C264.946,338.029 268.356,336.319 271.644,334.619L271.644,348.537C273.217,344.46 276.5,335.398 289.638,335.398C306.06,335.398 306.187,347.352 306.32,355.229L306.32,394.775" style="fill:rgb(249,249,249);fill-rule:nonzero;"/>
                    <path id="path989" d="M189.712,316.157L178.832,327.03L167.958,316.157L178.832,305.283L189.712,316.157" style="fill:rgb(154,176,201);fill-rule:nonzero;"/>
                </g>
            </g>
        </g>
        <g transform="matrix(1,0,0,1,436.392,725.51)">
            <g id="text1797">
                <text x="0px" y="0px" style="font-family:'Arial-BoldMT', 'Arial', sans-serif;font-weight:700;font-size:64px;fill:rgb(154,176,201);">sid</text>
            </g>
        </g>
    </g>
</svg>
